<svg xmlns="http://www.w3.org/2000/svg" width="256" height="256" viewBox="0 0 100 100">
    <rect width="100" height="100" rx="20" fill="#9952FF"/>
    <path fill="#fff"
          d="M72.87 48.24L72.87 51.84Q72.87 60.20 70.06 66.43Q67.25 72.66 62.09 75.94Q56.93 79.22 50.06 79.22L50.06 79.22Q43.34 79.22 38.14 75.92Q32.95 72.62 30.08 66.50Q27.21 60.39 27.13 52.34L27.13 52.34L27.13 48.24Q27.13 40.04 29.98 33.75Q32.83 27.46 38.05 24.12Q43.26 20.78 49.98 20.78L49.98 20.78Q56.82 20.78 62.03 24.08Q67.25 27.38 70.06 33.65Q72.87 39.92 72.87 48.24L72.87 48.24ZM65.41 52.38L65.41 48.16Q65.41 38.05 61.35 32.64Q57.29 27.23 49.98 27.23L49.98 27.23Q42.87 27.23 38.79 32.64Q34.71 38.05 34.59 47.66L34.59 47.66L34.59 51.84Q34.59 61.64 38.71 67.25Q42.83 72.85 50.06 72.85L50.06 72.85Q57.32 72.85 61.31 67.56Q65.29 62.27 65.41 52.38L65.41 52.38Z"/>
</svg>